Genre:Comedy
Language:English
IMDb:http://www.imdb.com/title/tt1321509/
Source Video:Spanish,TS-Screener.Thanks
Source Audio:NoGrp.Thanks
Encoder: Tony2
..............................................
General
Complete name : Death.At.A.Funeral.TS.XVID.FEEL-FREE
Format : AVI
Format/Info : Audio Video Interleave
File size : 1.39 GiB
Duration : 1h 28mn
..............................................
Video
ID : 0
Format : MPEG-4 Visual
Format profile : AdvancedSimple@L5
Format settings, BVOP : Yes
Format settings, QPel : No
Format settings, GMC : No warppoints
Format settings, Matrix : Default (MPEG)
Muxing mode : Packed bitstream
Codec ID : XVID
Codec ID/Hint : XviD
Duration : 1h 28mn
Bit rate : 2 040 Kbps
Width : 720 pixels
Height : 368 pixels
Display aspect ratio : 1.957
Frame rate : 23.976 fps
Resolution : 24 bits
Colorimetry : 4:2:0
Scan type : Progressive
Bits/(Pixel*Frame) : 0.321
Stream size : 1.26 GiB (91%)
Writing library : XviD 1.2.1 (UTC 2008-12-04)
...............................................
Audio
ID : 1
Format : AC-3
Format/Info : Audio Coding 3
Codec ID : 2000
Duration : 1h 28mn
Bit rate mode : Constant
Bit rate : 192 Kbps
Channel(s) : 2 channels
Channel positions : L R
Sampling rate : 48.0 KHz
Stream size : 122 MiB (9%)
Alignment : Split accross interleaves
Interleave, duration : 42 ms (1.00 video frame)
Interleave, preload duration : 500 ms
...............................................
Plot: 
A funeral ceremony turns into a debacle of exposed family secrets and misplaced bodies.
...................................................
Screenshots: 
http://postimg.com/image/18000/17055.jpg
 
http://postimg.com/image/18000/17056.jpg

.......................................................